PathFileType	4	(X/Y/Z)	path1_17_0-570.trc
DataRate	CameraRate	NumFrames	NumMarkers	Units	OrigDataRate	OrigDataStartFrame	OrigNumFrames
30	30	6	22	m	30	142	570
Frame#	Time	Hip			RHip			RKnee			RAnkle			RBigToe			RSmallToe			RHeel			LHip			LKnee			LAnkle			LBigToe			LSmallToe			LHeel			Neck			Head			Nose			RShoulder			RElbow			RWrist			LShoulder			LElbow			LWrist		
		X1	Y1	Z1	X2	Y2	Z2	X3	Y3	Z3	X4	Y4	Z4	X5	Y5	Z5	X6	Y6	Z6	X7	Y7	Z7	X8	Y8	Z8	X9	Y9	Z9	X10	Y10	Z10	X11	Y11	Z11	X12	Y12	Z12	X13	Y13	Z13	X14	Y14	Z14	X15	Y15	Z15	X16	Y16	Z16	X17	Y17	Z17	X18	Y18	Z18	X19	Y19	Z19	X20	Y20	Z20	X21	Y21	Z21	X22	Y22	Z22
143	4.766666666666667	2.4988145103841495	0.8358575623370944	0.6222687671345489	2.500562866036037	0.7962248352805325	0.5434090927505091	2.480311483908534	0.465151286505603	0.5465328902060377	2.5524369840090726	0.09718119880500632	0.5789940680968566	2.353898584878512	0.020219721037793376	0.5574391561081503	2.3900555749802317	0.022965775629628343	0.4952302308820405	2.5993661826569108	0.03367244363499458	0.5728112126381539	2.493057522975249	0.7942850662669245	0.7034380318107236	2.4946622211753606	0.44017515068185387	0.6812459685559312	2.5268641559806433	0.11306767605103966	0.67932730303671	2.3761591794131474	0.018923348891994447	0.6909899881969112	2.4088943873359003	0.025059913943364837	0.7473645825177518	2.5701477034252296	0.04292866812234212	0.6789652472106052	2.4662872042001256	1.472351719354196	0.6403651116449557	2.4388872252520577	1.7155364583839754	0.5775070245774985	2.3320969193106222	1.6096151314790925	0.609860768958885	2.512369193218285	1.365210039325823	0.4657850666706753	2.4937041389537535	1.0735598514088185	0.4094279776315674	2.4575182276334036	0.8435528730051739	0.4110701535997573	2.4872421415908774	1.3495925439170762	0.7693256674642246	2.485097188088578	1.0661479359163566	0.8323177797002168	2.4616480507193033	0.8324982210057907	0.8380418781580423
144	4.8	2.4993287352634437	0.836005903738195	0.622430944769246	2.5009389778364826	0.796864589857171	0.5429733954397996	2.479542105872209	0.46618775268540774	0.5456453017167954	2.552496726860534	0.09751478569725988	0.5792294387554882	2.3543579881904746	0.019903090474470673	0.5574024810424368	2.390312863723953	0.022882549289551163	0.49572683062491973	2.5995715842283404	0.033991110130684676	0.5747415545312453	2.4933494964074243	0.7946688793055813	0.7036232013688195	2.495380082772354	0.44017713428796595	0.6873035730145554	2.526846870731816	0.1135475095116543	0.6794610515592243	2.376244417375802	0.018699047726039763	0.6916102103225921	2.4094634251817224	0.024419415592520144	0.7475333681254168	2.5698283267208875	0.04293822098065701	0.6784651837404264	2.4660776607080006	1.4723717053930978	0.6406908339508545	2.438335120601653	1.7159557581238591	0.5786663943048415	2.3319858564282456	1.6097315549535411	0.6102652994443238	2.5121922011820246	1.3654498939278374	0.46582891558679235	2.4934175183402956	1.073634022044601	0.4097241787838389	2.4574561450202257	0.8437816718622396	0.4113477564092573	2.486746204617923	1.3495648183036895	0.7697980912957956	2.485121478621609	1.0661304117090231	0.8324338370834011	2.4614094857974638	0.8323926960182264	0.8380232700083052
145	4.833333333333333	2.500296422162413	0.8360473008059967	0.6226265070882108	2.501453691375894	0.7978200853941588	0.5420781575164313	2.480234378369869	0.46675882078427	0.5463860212066949	2.5524155501670536	0.09791527880907751	0.579284450097304	2.3548325816600384	0.01883306562512162	0.5576790248182412	2.3905920144409274	0.022934158342842386	0.4961138207201852	2.599421403168106	0.034419477945901354	0.5752326314569561	2.4936399345937468	0.795171981478089	0.7035833526258177	2.4961856828692226	0.4404110308012534	0.6948403608465907	2.527320678911944	0.11366671674596959	0.679587388339087	2.3764795119555826	0.017974979702161588	0.6920027950848319	2.410437806490795	0.02350814350513933	0.747798298173479	2.5703254855333295	0.04266496776539491	0.6783985069239686	2.4659420883638763	1.4723485448628404	0.6408217214243452	2.437450231804316	1.7166920320616645	0.5800382756462035	2.3320440796969883	1.6097413561480876	0.6107858059584291	2.51196305514385	1.3658505344131318	0.46579374666001694	2.4932664758316756	1.0735906899020768	0.4100751513948143	2.457344121835331	0.843924176539647	0.41160820225043787	2.4862781912384815	1.3494802994119	0.7705159257209071	2.485166593471644	1.0662094958608512	0.8325999114400037	2.461221902029047	0.832159735752678	0.8380871080426735
146	4.866666666666666	2.5014939057084833	0.8359491409733274	0.6228519029757926	2.501954168521468	0.798960795365999	0.540864379159375	2.4833063159694557	0.4662490470293977	0.5498838464323957	2.5520535215002953	0.09831234646844432	0.579075605117384	2.3550841714717228	0.01761196962281631	0.5581364330382944	2.390774101592802	0.02313139612728131	0.4962585876140324	2.5988392533045452	0.03488882066366007	0.5741446455115816	2.4938359512354364	0.7956686694864523	0.7032673892802526	2.496971065654025	0.4407393616932368	0.7017592301696344	2.527907863772585	0.11359804282141395	0.6797367618943986	2.376917310281091	0.0167762943854644	0.6920790456376681	2.4117267475708095	0.022444843233492315	0.7481060454432574	2.571154782363043	0.04227429965040086	0.6786021891127634	2.4658350209420004	1.472331658029835	0.6408336469208171	2.4362914401333944	1.7175664301502365	0.5814526984103253	2.3322242662838972	1.609613111530614	0.611419597420949	2.511659602488158	1.3663628908969123	0.4657253333755176	2.49319405656115	1.0734795645170867	0.4104352088942788	2.4571574181270517	0.8439326459376921	0.4118587155701757	2.4858643224471586	1.349382357415475	0.7714100835571239	2.485198609548609	1.0664119367779563	0.8327862274997476	2.461118692352199	0.8318913584096739	0.83821506667043
147	4.9	2.5026179936422537	0.8357265543339891	0.6230797984493611	2.5023018132252712	0.8000919106734328	0.5395959028375211	2.4885223903227733	0.464568905642934	0.55587004214135	2.5514463343721463	0.09861525322284115	0.5786305847543445	2.3549628335482495	0.016890131498769074	0.5585560174287594	2.3907599378679376	0.023440446741303658	0.49612267185389636	2.5979772668650902	0.03529616738638525	0.5718910898202963	2.4938944998076065	0.7960336121785193	0.7027505487065265	2.497550441031143	0.4410794127865683	0.706639330406888	2.528317359336437	0.1134795033095261	0.6798858125244862	2.377462549834653	0.015243455866458713	0.691799250888097	2.413084086722583	0.021422600919440433	0.7483817051265842	2.5718692264081047	0.041930258604231725	0.678878970068396	2.4657169561087713	1.4723446342246618	0.6407508666187143	2.435046568289215	1.7183527472173852	0.5827057561051533	2.3324430935353493	1.609316229142882	0.6120364604598826	2.511322490261984	1.3668964145527973	0.46568186946246476	2.4931517179631277	1.0733556438105478	0.4107734453195865	2.456895536069009	0.8438278166838034	0.41209593651871035	2.485550133334673	1.3493345225503437	0.7723309381449771	2.48521526297542	1.0667006377540482	0.8329186759532599	2.461107324164073	0.8316616794931182	0.838381911536765
148	4.933333333333334	2.5034169530030845	0.8354397294566648	0.623245823015368	2.502427343676442	0.8009955886209414	0.538570854726946	2.4943265722232	0.4622970947009301	0.5625315121811066	2.5508149330008356	0.09872962377851426	0.5781212513415476	2.3545074363744147	0.017005751464804313	0.5587472763114631	2.3905558059208145	0.02376997125256793	0.49579356325690466	2.597157314356758	0.03554793373353649	0.5693266754729543	2.493847100329978	0.7961845723883874	0.7021937091693441	2.4978191879028153	0.44134550461596217	0.7092858574107392	2.528459114528701	0.11338216574882545	0.680004290897704	2.377876905778666	0.013640521339178984	0.6912408233439782	2.4141985086295215	0.020638658785436057	0.748566300898661	2.5722308130688574	0.04172961606033077	0.6790673648373384	2.465592162994131	1.472375916897421	0.6405515367681671	2.433980494475268	1.7188759327023342	0.5836069395740656	2.3325997155332843	1.6088668259781918	0.6124986596166433	2.5110324887751974	1.3673674999559158	0.46571183024262186	2.49313231043024	1.0732671113468366	0.4110550427775023	2.4565855147139923	0.8437112049085586	0.4122816845505206	2.485351373721779	1.3493613740777757	0.773100475064604	2.48522007844397	1.0669979609013764	0.832937427122368	2.4611290256822254	0.8315149556690083	0.8385509096473982
